<?xml version="1.0" standalone="no"?>
<!DOCTYPE svg PUBLIC "-//W3C//DTD SVG 20010904//EN" "http://www.w3.org/TR/2001/REC-SVG-20010904/DTD/svg10.dtd">
<svg version="1.0" xmlns="http://www.w3.org/2000/svg" width="256.000000pt" height="256.000000pt" viewBox="0 0 256.000000 256.000000" preserveAspectRatio="xMidYMid meet">
<g transform="translate(0.000000,256.000000) scale(0.100000,-0.100000)"
fill="#000000" stroke="none">
<path d="M1072 2435 c-479 -87 -865 -477 -948 -960 -24 -133 -15 -359 19 -486 118 -448 471 -782 921 -871 145 -28 380 -22 518 15 258 68 491 226 653 442 141 188 225 448 225 695 0 561 -397 1048 -947 1159 -119 25 -324 27 -441 6z m378 -170 c112 -17 176 -38 285 -93 106 -53 164 -96 258 -189 218 -216 316 -495 286 -810 -21 -227 -121 -435 -291 -603 -148 -147 -340 -249 -529 -279 -83 -14 -279 -14 -355 0 -292 52 -568 255 -703 518 -69 134 -98 227 -112 359 -34 313 67 598 292 819 90 89 150 133 251 184 196 99 391 129 618 94z"/>
<path d="M1174 1875 c-218 -47 -384 -235 -424 -481 -14 -84 -9 -94 50 -94 49 0 49 0 55 38 32 188 147 315 326 357 173 40 350 -5 456 -118 63 -67 91 -121 107 -206 l12 -66 48 -3 c27 -2 53 1 58 6 18 18 -20 171 -64 262 -52 106 -151 211 -247 259 -110 56 -253 73 -377 46z"/>
<path d="M1246 1253 c-2 -10 -12 -65 -21 -123 -22 -141 -24 -145 -45 -73 -33 118 -66 126 -99 23 l-22 -70 -40 0 c-39 0 -40 -1 -37 -32 3 -33 4 -33 60 -36 48 -3 58 0 71 19 17 24 12 36 51 -115 13 -53 28 -75 48 -76 18 0 37 52 48 135 19 135 24 141 45 54 27 -115 58 -129 96 -44 11 25 22 45 24 45 3 0 13 -17 22 -37 24 -50 53 -55 82 -14 16 22 31 31 59 33 30 2 38 7 40 26 2 13 -2 30 -8 38 -16 18 -94 19 -113 0 -12 -13 -17 -8 -38 35 -35 77 -69 85 -89 23 -7 -20 -14 -33 -17 -30 -3 2 -16 51 -29 107 -14 56 -29 108 -35 116 -16 19 -47 16 -53 -4z"/>
<path d="M731 1227 c-19 -7 -44 -25 -55 -40 -19 -26 -21 -42 -21 -201 0 -187 5 -206 60 -242 28 -18 147 -31 189 -20 l26 6 0 243 c0 176 -3 246 -12 255 -16 16 -142 15 -187 -1z"/>
<path d="M1677 1233 c-13 -12 -8 -488 5 -501 19 -19 166 -15 208 6 64 32 72 63 65 252 -6 180 -11 196 -68 230 -25 16 -50 20 -118 20 -47 0 -89 -3 -92 -7z"/>
</g>
</svg>
